<?xml version="1.0" encoding="utf-8"?>
<!-- Generator: Adobe Illustrator 22.1.0, SVG Export Plug-In . SVG Version: 6.00 Build 0)  -->
<svg version="1.1" id="Layer_1" xmlns="http://www.w3.org/2000/svg" xmlns:xlink="http://www.w3.org/1999/xlink" x="0px" y="0px"
	 width="4487.9px" height="512px" viewBox="0 0 4487.9 512" style="enable-background:new 0 0 4487.9 512;" xml:space="preserve">
<style type="text/css">
	.st0{fill:#455A64;}
	.st1{fill:#78909C;}
</style>
<g>
	<path class="st0" d="M510,334.9l-19.2,34.7h-43.7l-11,43.9h-41.3L469.7,134H496l74.9,279.6h-41.3L510,334.9z M455.9,333.7h53.9
		l-27-108.6L455.9,333.7z"/>
	<path class="st0" d="M783.4,213.9l-39.9,16v-20c0-11-3.9-20.5-11.7-28.3c-7.8-7.8-17.2-11.7-28.3-11.7c-11.1,0-20.5,3.9-28.3,11.7
		c-7.8,7.8-11.7,17.2-11.7,28.3v127.8c0,11.1,3.9,20.5,11.7,28.3c7.8,7.8,17.2,11.7,28.3,11.7c11,0,20.5-3.9,28.3-11.7
		c7.8-7.8,11.7-17.2,11.7-28.3v-20l39.9,16c0,22.1-7.8,40.9-23.4,56.5s-34.4,23.4-56.5,23.4c-22.1,0-40.9-7.8-56.5-23.4
		s-23.4-34.4-23.4-56.5V213.9c0-22.1,7.8-40.9,23.4-56.5s34.4-23.4,56.5-23.4c22.1,0,40.9,7.8,56.5,23.4S783.4,191.8,783.4,213.9z"
		/>
	<path class="st0" d="M884.2,262.4v151.2h-39.9V125l79.9,137.2L1004,125v288.6h-39.9V262.4l-39.9,68.7L884.2,262.4z"/>
	<path class="st0" d="M1204.7,134V170h-99.9v85.9h99.9l-20,35.9h-79.9v85.9h99.9v35.9h-139.8V134H1204.7z"/>
	<path class="st0" d="M1526.1,213.9l-39.9,16v-20c0-11-3.9-20.5-11.7-28.3c-7.8-7.8-17.2-11.7-28.3-11.7c-11.1,0-20.5,3.9-28.3,11.7
		c-7.8,7.8-11.7,17.2-11.7,28.3v127.8c0,11.1,3.9,20.5,11.7,28.3c7.8,7.8,17.2,11.7,28.3,11.7c11,0,20.5-3.9,28.3-11.7
		c7.8-7.8,11.7-17.2,11.7-28.3v-20l39.9,16c0,22.1-7.8,40.9-23.4,56.5s-34.4,23.4-56.5,23.4c-22.1,0-40.9-7.8-56.5-23.4
		s-23.4-34.4-23.4-56.5V213.9c0-22.1,7.8-40.9,23.4-56.5s34.4-23.4,56.5-23.4c22.1,0,40.9,7.8,56.5,23.4S1526.1,191.8,1526.1,213.9z
		"/>
	<path class="st0" d="M1746.8,333.7c0,22.1-7.8,40.9-23.4,56.5s-34.4,23.4-56.5,23.4c-22.1,0-40.9-7.8-56.5-23.4
		s-23.4-34.4-23.4-56.5V213.9c0-22.1,7.8-40.9,23.4-56.5s34.4-23.4,56.5-23.4c22.1,0,40.9,7.8,56.5,23.4s23.4,34.4,23.4,56.5V333.7z
		 M1626.9,337.7c0,11.1,3.9,20.5,11.7,28.3c7.8,7.8,17.2,11.7,28.3,11.7c11,0,20.5-3.9,28.3-11.7c7.8-7.8,11.7-17.2,11.7-28.3V209.9
		c0-11-3.9-20.5-11.7-28.3c-7.8-7.8-17.2-11.7-28.3-11.7c-11.1,0-20.5,3.9-28.3,11.7c-7.8,7.8-11.7,17.2-11.7,28.3V337.7z"/>
	<path class="st0" d="M1847.6,170v243.6h-39.9V134h79.9c22.1,0,40.9,7.8,56.5,23.4s23.4,34.4,23.4,56.5c0,22.1-7.8,40.6-23.4,55.5
		c-10.1,9.7-21.6,16.2-34.3,19.6l59.9,124.6h-44.3l-75.9-157.8h38.1c11,0,20.5-3.9,28.3-11.7c7.8-7.8,11.7-17.9,11.7-30.3
		c0-13.7-3.9-24.5-11.7-32.3c-7.8-7.8-17.2-11.7-28.3-11.7H1847.6z"/>
	<path class="st0" d="M2108.2,134c22.1,0,40.9,7.8,56.5,23.4s23.4,34.4,23.4,56.5c0,22.1-7.8,40.9-23.4,56.5s-34.4,23.4-56.5,23.4
		h-39.9v119.8h-39.9V134H2108.2z M2148.1,213.9c0-13.7-3.9-24.5-11.7-32.3c-7.8-7.8-17.2-11.7-28.3-11.7h-39.9v87.9h39.9
		c11,0,20.5-3.9,28.3-11.7C2144.2,238.4,2148.1,227.6,2148.1,213.9z"/>
	<path class="st1" d="M2389.7,170v243.6h-39.9V134h79.9c22.1,0,40.9,7.8,56.5,23.4s23.4,34.4,23.4,56.5c0,22.1-7.8,40.6-23.4,55.5
		c-10.1,9.7-21.6,16.2-34.3,19.6l59.9,124.6h-44.3l-75.9-157.8h38.1c11,0,20.5-3.9,28.3-11.7c7.8-7.8,11.7-17.9,11.7-30.3
		c0-13.7-3.9-24.5-11.7-32.3c-7.8-7.8-17.2-11.7-28.3-11.7H2389.7z"/>
	<path class="st1" d="M2710.2,134V170h-99.9v85.9h99.9l-20,35.9h-79.9v85.9h99.9v35.9h-139.8V134H2710.2z"/>
	<path class="st1" d="M2850.9,134c22.1,0,40.9,7.8,56.5,23.4s23.4,34.4,23.4,56.5c0,22.1-7.8,40.9-23.4,56.5s-34.4,23.4-56.5,23.4
		H2811v119.8H2771V134H2850.9z M2890.9,213.9c0-13.7-3.9-24.5-11.7-32.3c-7.8-7.8-17.2-11.7-28.3-11.7H2811v87.9h39.9
		c11,0,20.5-3.9,28.3-11.7C2887,238.4,2890.9,227.6,2890.9,213.9z"/>
	<path class="st1" d="M3151.4,333.7c0,22.1-7.8,40.9-23.4,56.5s-34.4,23.4-56.5,23.4c-22.1,0-40.9-7.8-56.5-23.4
		s-23.4-34.4-23.4-56.5V213.9c0-22.1,7.8-40.9,23.4-56.5s34.4-23.4,56.5-23.4c22.1,0,40.9,7.8,56.5,23.4s23.4,34.4,23.4,56.5V333.7z
		 M3031.6,337.7c0,11.1,3.9,20.5,11.7,28.3c7.8,7.8,17.2,11.7,28.3,11.7c11,0,20.5-3.9,28.3-11.7c7.8-7.8,11.7-17.2,11.7-28.3V209.9
		c0-11-3.9-20.5-11.7-28.3c-7.8-7.8-17.2-11.7-28.3-11.7c-11.1,0-20.5,3.9-28.3,11.7c-7.8,7.8-11.7,17.2-11.7,28.3V337.7z"/>
	<path class="st1" d="M3252.2,170v243.6h-39.9V134h79.9c22.1,0,40.9,7.8,56.5,23.4s23.4,34.4,23.4,56.5c0,22.1-7.8,40.6-23.4,55.5
		c-10.1,9.7-21.6,16.2-34.3,19.6l59.9,124.6h-44.3L3254,255.8h38.1c11,0,20.5-3.9,28.3-11.7c7.8-7.8,11.7-17.9,11.7-30.3
		c0-13.7-3.9-24.5-11.7-32.3c-7.8-7.8-17.2-11.7-28.3-11.7H3252.2z"/>
	<path class="st1" d="M3592.7,134V170h-59.9v243.6h-39.9V170h-59.9V134H3592.7z"/>
	<path class="st1" d="M3693.5,413.6h-39.9V134h39.9V413.6z"/>
	<path class="st1" d="M3794.3,243.1v170.6h-39.9V109.1l119.8,195.5V134h39.9v304.6L3794.3,243.1z"/>
	<path class="st1" d="M3975,213.9c0-22.1,7.8-40.9,23.4-56.5s34.4-23.4,56.5-23.4c22.1,0,40.9,7.8,56.5,23.4s23.4,34.4,23.4,56.5
		l-39.9-4c0-11-3.9-20.5-11.7-28.3c-7.8-7.8-17.2-11.7-28.3-11.7c-11.1,0-20.5,3.9-28.3,11.7c-7.8,7.8-11.7,17.2-11.7,28.3v127.8
		c0,11.1,3.9,20.5,11.7,28.3c7.8,7.8,17.2,11.7,28.3,11.7c11,0,20.5-3.9,28.3-11.7c7.8-7.8,11.7-17.2,11.7-28.3v-45.9h-34l-10-35.9
		h83.9v77.9c0,22.1-7.8,40.9-23.4,56.5s-34.4,23.4-56.5,23.4c-22.1,0-40.9-7.8-56.5-23.4s-23.4-34.4-23.4-56.5V213.9z"/>
</g>
</svg>
