<?xml version="1.0" encoding="utf-8"?>
<!-- Generator: Adobe Illustrator 19.1.0, SVG Export Plug-In . SVG Version: 6.00 Build 0)  -->
<svg version="1.0" id="Layer_1" xmlns="http://www.w3.org/2000/svg" xmlns:xlink="http://www.w3.org/1999/xlink" x="0px" y="0px"
	 viewBox="0 0 400 400" style="enable-background:new 0 0 400 400;" xml:space="preserve">
<style type="text/css">
	.st0{fill:#5D87A1;}
	.st1{fill:#F8981D;}
	.st2{fill-rule:evenodd;clip-rule:evenodd;fill:#F8981D;}
	.st3{fill-rule:evenodd;clip-rule:evenodd;fill:#5D87A1;}
</style>
<g>
	<path class="st0" d="M106.9,286.6H92.6c-0.5-24.1-1.9-46.7-4.2-68h-0.1l-21.7,68H55.7l-21.6-68H34c-1.6,20.4-2.6,43-3,68h-13
		c0.8-30.3,2.9-58.7,6.3-85.3H42L62.5,264h0.1l20.7-62.7h16.9C104,232.4,106.2,260.8,106.9,286.6"/>
	<path class="st0" d="M168.8,223.7c-5.8,31.5-13.5,54.5-23,68.8c-7.4,11-15.5,16.5-24.4,16.5c-2.4,0-5.3-0.7-8.7-2.1v-7.6
		c1.7,0.2,3.7,0.4,5.9,0.4c4.1,0,7.5-1.1,10-3.4c3-2.8,4.5-5.9,4.5-9.3c0-2.4-1.2-7.2-3.5-14.5L114,223.7h14l11.2,36.4
		c2.5,8.3,3.6,14,3.2,17.3c6.1-16.4,10.4-34.3,12.9-53.7H168.8z"/>
	<polygon class="st1" points="358.8,286.6 318.2,286.6 318.2,201.3 331.9,201.3 331.9,276.1 358.8,276.1 	"/>
	<path class="st2" d="M307.6,288.6l-15.7-7.7c1.4-1.1,2.7-2.4,3.9-3.8c6.7-7.8,10-19.4,10-34.7c0-28.2-11.1-42.3-33.2-42.3
		c-10.9,0-19.3,3.6-25.4,10.7c-6.7,7.8-10,19.4-10,34.6c0,15,2.9,26,8.8,33c5.4,6.3,13.5,9.5,24.4,9.5c4.1,0,7.8-0.5,11.2-1.5
		l20.4,11.9L307.6,288.6z M256.9,269.5c-3.5-5.6-5.2-14.5-5.2-26.8c0-21.5,6.5-32.2,19.6-32.2c6.8,0,11.8,2.6,15,7.7
		c3.5,5.6,5.2,14.4,5.2,26.5c0,21.6-6.5,32.5-19.6,32.5C265.1,277.2,260.1,274.7,256.9,269.5"/>
	<path class="st1" d="M231.3,262.9c0,7.2-2.7,13.2-8,17.8c-5.3,4.6-12.4,6.9-21.3,6.9c-8.3,0-16.4-2.7-24.3-8l3.7-7.3
		c6.7,3.4,12.8,5.1,18.3,5.1c5.1,0,9.2-1.1,12.1-3.4c2.9-2.3,4.6-5.4,4.6-9.5c0-5.1-3.5-9.4-10-13c-6-3.3-17.9-10.1-17.9-10.1
		c-6.5-4.7-9.7-9.8-9.7-18.1c0-6.9,2.4-12.5,7.3-16.7c4.8-4.3,11.1-6.4,18.8-6.4c7.9,0,15.1,2.1,21.6,6.3l-3.3,7.3
		c-5.5-2.4-11-3.5-16.4-3.5c-4.4,0-7.7,1.1-10.1,3.2c-2.4,2.1-3.8,4.8-3.8,8.1c0,5.1,3.6,9.4,10.3,13.1c6.1,3.3,18.3,10.3,18.3,10.3
		C228,249.6,231.3,254.7,231.3,262.9"/>
	<path class="st3" d="M375.9,172.7c-8.2-0.2-14.6,0.6-20,2.9c-1.5,0.6-4,0.6-4.2,2.6c0.8,0.8,0.9,2.2,1.7,3.3
		c1.2,2.1,3.4,4.8,5.4,6.3c2.2,1.6,4.3,3.3,6.6,4.7c4,2.5,8.6,3.9,12.5,6.4c2.3,1.4,4.5,3.3,6.8,4.8c1.1,0.8,1.8,2.2,3.3,2.7v-0.3
		c-0.7-0.9-0.9-2.3-1.6-3.3c-1-1-2.1-2-3.1-3c-3-4-6.7-7.5-10.7-10.4c-3.3-2.3-10.5-5.4-11.9-9.2c0,0-0.1-0.1-0.2-0.2
		c2.3-0.2,5-1,7.1-1.7c3.5-0.9,6.7-0.7,10.3-1.6c1.7-0.4,3.3-0.9,5-1.4v-0.9c-1.9-1.9-3.2-4.3-5.2-6.1c-5.3-4.5-11-9-17-12.7
		c-3.2-2.1-7.3-3.4-10.7-5.2c-1.2-0.6-3.3-0.9-4-2c-1.9-2.3-2.9-5.3-4.2-7.9c-3-5.7-5.9-11.9-8.4-17.9c-1.9-4-3-8-5.3-11.7
		c-10.6-17.5-22.2-28.1-39.9-38.5c-3.8-2.2-8.3-3.1-13.2-4.2c-2.6-0.1-5.2-0.3-7.7-0.4c-1.7-0.7-3.3-2.7-4.7-3.6
		c-5.9-3.7-21-11.7-25.3-1.1c-2.8,6.7,4.1,13.3,6.5,16.7c1.8,2.4,4,5.1,5.3,7.7c0.7,1.8,0.9,3.6,1.7,5.5c1.6,4.5,3.2,9.6,5.4,13.8
		c1.1,2.2,2.4,4.4,3.8,6.4c0.8,1.1,2.3,1.6,2.6,3.5c-1.4,2.1-1.6,5.1-2.4,7.7c-3.7,11.6-2.3,26.1,3,34.6c1.6,2.6,5.6,8.2,10.8,6.1
		c4.6-1.9,3.6-7.7,4.9-12.9c0.3-1.2,0.1-2.1,0.7-2.9v0.2c1.4,2.9,2.9,5.7,4.2,8.6c3.2,5,8.8,10.3,13.4,13.8c2.5,1.9,4.4,5.1,7.5,6.2
		v-0.3h-0.2c-0.6-0.9-1.5-1.3-2.4-2.1c-1.9-1.9-3.9-4.1-5.4-6.2c-4.3-5.8-8.1-12.2-11.5-18.8c-1.7-3.2-3.1-6.7-4.4-9.9
		c-0.6-1.2-0.6-3.1-1.6-3.7c-1.6,2.3-3.8,4.2-4.9,7c-2,4.4-2.2,9.9-2.9,15.6c-0.4,0.1-0.2,0-0.4,0.2c-3.3-0.8-4.4-4.2-5.7-7.1
		c-3.1-7.3-3.6-19.1-0.9-27.5c0.7-2.2,3.8-9,2.6-11c-0.6-2-2.7-3.1-3.8-4.6c-1.3-2-2.8-4.4-3.7-6.6c-2.5-5.8-3.7-12.2-6.4-17.9
		c-1.2-2.7-3.4-5.5-5.2-7.9c-2-2.8-4.1-4.7-5.7-8c-0.5-1.1-1.2-3-0.4-4.2c0.2-0.8,0.6-1.1,1.4-1.3c1.3-1.1,5.1,0.3,6.5,0.9
		c3.8,1.5,7,3,10.2,5.2c1.4,1,3,3,4.8,3.5h2.2c3.3,0.7,7,0.2,10.1,1.1c5.5,1.8,10.4,4.3,14.8,7.1c13.5,8.6,24.6,20.7,32.1,35.2
		c1.2,2.4,1.8,4.5,2.9,7c2.2,5.1,4.8,10.2,7,15.2c2.2,4.8,4.2,9.8,7.3,13.8c1.5,2.2,7.7,3.3,10.5,4.4c2.1,0.9,5.3,1.8,7.1,2.9
		c3.5,2.2,7,4.6,10.3,7C370.5,168.1,375.6,170.7,375.9,172.7"/>
	<path class="st3" d="M270.8,83.2c-1.7,0-3,0.2-4.2,0.5v0.2h0.2c0.8,1.6,2.3,2.8,3.3,4.2c0.8,1.6,1.6,3.3,2.4,4.9
		c0.1-0.1,0.2-0.2,0.2-0.2c1.5-1,2.2-2.7,2.2-5.2c-0.6-0.7-0.7-1.4-1.2-2.2C273,84.5,271.6,84,270.8,83.2"/>
	<path class="st1" d="M385.7,286.6h2.1v-10.4h-3.2l-2.6,7.1l-2.8-7.1h-3.1v10.4h2v-8h0.1l3,8h1.5l3-8V286.6z M368.5,286.6h2.3v-8.7
		h3v-1.8h-8.3v1.8h3.1V286.6z"/>
</g>
</svg>
