<!-- Generator: Adobe Illustrator 22.1.0, SVG Export Plug-In . SVG Version: 6.00 Build 0)  -->
<svg version="1.1" id="Layer_1" xmlns="http://www.w3.org/2000/svg" xmlns:xlink="http://www.w3.org/1999/xlink" x="0px" y="0px"
	 width="2538.6px" height="512px" viewBox="0 0 2538.6 512" style="enable-background:new 0 0 2538.6 512;" xml:space="preserve">
<style type="text/css">
	.st0{fill:#B0BEC5;}
	.st1{fill:#78909C;}
	.st2{fill:#57565C;}
	.st3{fill:#2D2E30;}
	.st4{fill:#1D1D1F;}
	.st5{fill:#FFFFFF;}
</style>
<circle class="st0" cx="298.2" cy="268.2" r="235.8"/>
<path class="st1" d="M534,268.2c0-15.9-1.6-31.5-4.6-46.6l-48.7-48.7c-20.7,0-355.2,0-375.3,0c0,24,9.8,45.5,25.6,61.1l0,0
	l97.4,97.4c-1.7,0.3-3.4,0.4-5.2,0.4l0,0l0,0h-31.4v53l119.1,119.1C435.1,497.1,534,394.2,534,268.2z"/>
<path class="st2" d="M480.7,258.4v-85.6c-6.8,0-367.7,0-375.3,0c0,47.3,38.3,85.6,85.6,85.6h32.2c20.2,0,36.6,16.4,36.6,36.6
	c0,20.2-16.4,36.6-36.6,36.6h-31.4v53h288.9v-53h-31.4c-20.2,0-36.6-16.4-36.6-36.6s16.4-36.6,36.6-36.6L480.7,258.4L480.7,258.4z"
	/>
<g>
	<path class="st3" d="M449.2,258.4h31.4v-85.6c-3.4,0-93.2,0-184.3,0v211.8h184.3v-53h-31.4c-20.2,0-36.6-16.4-36.6-36.6
		S429,258.4,449.2,258.4z"/>
	<path class="st3" d="M449.2,258.4H223.2c20.2,0,36.6,16.4,36.6,36.6c0,20.2-16.4,36.6-36.6,36.6h226.1c-20.2,0-36.6-16.4-36.6-36.6
		S429,258.4,449.2,258.4z"/>
</g>
<path class="st4" d="M449.2,258.4H296.4v73.2h152.8c-20.2,0-36.6-16.4-36.6-36.6S429,258.4,449.2,258.4z"/>
<g>
	<path class="st5" d="M791.5,329.3L772.3,364h-43.7l-11,43.9h-41.3l74.9-279.6h26.4L852.4,408h-41.3L791.5,329.3z M737.4,328.1h53.9
		l-27-108.6L737.4,328.1z"/>
	<path class="st5" d="M1064.9,208.3l-39.9,16v-20c0-11-3.9-20.5-11.7-28.3s-17.2-11.7-28.3-11.7s-20.5,3.9-28.3,11.7
		S945,193.2,945,204.3v127.8c0,11.1,3.9,20.5,11.7,28.3s17.2,11.7,28.3,11.7c11,0,20.5-3.9,28.3-11.7c7.8-7.8,11.7-17.2,11.7-28.3
		v-20l39.9,16c0,22.1-7.8,40.9-23.4,56.5S1007.1,408,985,408s-40.9-7.8-56.5-23.4s-23.4-34.4-23.4-56.5V208.3
		c0-22.1,7.8-40.9,23.4-56.5s34.4-23.4,56.5-23.4s40.9,7.8,56.5,23.4S1064.9,186.2,1064.9,208.3z"/>
	<path class="st5" d="M1165.7,256.8V408h-39.9V119.4l79.9,137.2l79.9-137.2V408h-39.9V256.8l-39.9,68.7L1165.7,256.8z"/>
	<path class="st5" d="M1486.2,128.4v35.9h-99.9v85.9h99.9l-20,35.9h-79.9V372h99.9v36h-139.8V128.4H1486.2z"/>
	<path class="st5" d="M1807.6,208.3l-39.9,16v-20c0-11-3.9-20.5-11.7-28.3c-7.8-7.8-17.2-11.7-28.3-11.7c-11.1,0-20.5,3.9-28.3,11.7
		s-11.7,17.2-11.7,28.3v127.8c0,11.1,3.9,20.5,11.7,28.3c7.8,7.8,17.2,11.7,28.3,11.7c11,0,20.5-3.9,28.3-11.7
		c7.8-7.8,11.7-17.2,11.7-28.3v-20l39.9,16c0,22.1-7.8,40.9-23.4,56.5s-34.4,23.4-56.5,23.4s-40.9-7.8-56.5-23.4
		s-23.4-34.4-23.4-56.5V208.3c0-22.1,7.8-40.9,23.4-56.5s34.4-23.4,56.5-23.4s40.9,7.8,56.5,23.4S1807.6,186.2,1807.6,208.3z"/>
	<path class="st5" d="M2028.3,328.1c0,22.1-7.8,40.9-23.4,56.5s-34.4,23.4-56.5,23.4s-40.9-7.8-56.5-23.4s-23.4-34.4-23.4-56.5
		V208.3c0-22.1,7.8-40.9,23.4-56.5s34.4-23.4,56.5-23.4s40.9,7.8,56.5,23.4s23.4,34.4,23.4,56.5V328.1z M1908.5,332.1
		c0,11.1,3.9,20.5,11.7,28.3c7.8,7.8,17.2,11.7,28.3,11.7c11,0,20.5-3.9,28.3-11.7c7.8-7.8,11.7-17.2,11.7-28.3V204.3
		c0-11-3.9-20.5-11.7-28.3c-7.8-7.8-17.2-11.7-28.3-11.7c-11.1,0-20.5,3.9-28.3,11.7s-11.7,17.2-11.7,28.3V332.1z"/>
	<path class="st5" d="M2129.1,164.4V408h-39.9V128.4h79.9c22.1,0,40.9,7.8,56.5,23.4s23.4,34.4,23.4,56.5s-7.8,40.6-23.4,55.5
		c-10.1,9.7-21.6,16.2-34.3,19.6l59.9,124.6h-44.3L2131,250.2h38.1c11,0,20.5-3.9,28.3-11.7s11.7-17.9,11.7-30.3
		c0-13.7-3.9-24.5-11.7-32.3s-17.2-11.7-28.3-11.7h-40V164.4z"/>
	<path class="st5" d="M2389.7,128.4c22.1,0,40.9,7.8,56.5,23.4s23.4,34.4,23.4,56.5s-7.8,40.9-23.4,56.5s-34.4,23.4-56.5,23.4h-39.9
		V408h-39.9V128.4H2389.7z M2429.6,208.3c0-13.7-3.9-24.5-11.7-32.3s-17.2-11.7-28.3-11.7h-39.9v87.9h39.9c11,0,20.5-3.9,28.3-11.7
		C2425.7,232.8,2429.6,222,2429.6,208.3z"/>
</g>
</svg>
