<?xml version="1.0" encoding="iso-8859-1"?>
<!-- Generator: Adobe Illustrator 19.0.0, SVG Export Plug-In . SVG Version: 6.00 Build 0)  -->
<svg version="1.1" id="Capa_1" xmlns="http://www.w3.org/2000/svg" xmlns:xlink="http://www.w3.org/1999/xlink" x="0px" y="0px"
	 viewBox="0 0 512 512" style="enable-background:new 0 0 512 512;" xml:space="preserve">
<circle style="fill:#38C96C;" cx="170.26" cy="316.529" r="170.26"/>
<path style="fill:#2BAA55;" d="M340.527,316.53c0,94.039-76.231,170.27-170.259,170.27c-81.714,0-149.983-57.559-166.474-134.345
	c31.243,37.313,78.165,61.046,130.621,61.046c94.039,0,170.27-76.231,170.27-170.27c0-12.314-1.306-24.33-3.796-35.904
	C325.64,236.883,340.527,274.968,340.527,316.53z"/>
<circle style="fill:#FFE1A0;" cx="370.19" cy="314.989" r="141.81"/>
<path style="fill:#EFCC86;" d="M512,314.997c0,78.309-63.485,141.804-141.804,141.804c-66.221,0-121.836-45.389-137.432-106.744
	c26.007,30.379,64.637,49.638,107.762,49.638c78.319,0,141.814-63.485,141.814-141.804c0-12.098-1.512-23.836-4.372-35.05
	C499.192,247.623,512,279.813,512,314.997z"/>
<circle style="fill:#F16645;" cx="286.81" cy="124.319" r="99.12"/>
<path style="fill:#EB5836;" d="M385.926,124.316c0,54.74-44.37,99.111-99.111,99.111c-49.329,0-90.253-36.037-97.845-83.227
	c18.168,20.853,44.916,34.031,74.75,34.031c54.74,0,99.121-44.37,99.121-99.111c0-5.411-0.432-10.709-1.276-15.884
	C376.739,76.654,385.926,99.421,385.926,124.316z"/>
<g>
</g>
<g>
</g>
<g>
</g>
<g>
</g>
<g>
</g>
<g>
</g>
<g>
</g>
<g>
</g>
<g>
</g>
<g>
</g>
<g>
</g>
<g>
</g>
<g>
</g>
<g>
</g>
<g>
</g>
</svg>
