<?xml version="1.0" encoding="utf-8"?>
<!-- Generator: Adobe Illustrator 22.1.0, SVG Export Plug-In . SVG Version: 6.00 Build 0)  -->
<svg version="1.1" id="Layer_1" xmlns="http://www.w3.org/2000/svg" xmlns:xlink="http://www.w3.org/1999/xlink" x="0px" y="0px"
	 width="512px" height="512px" viewBox="30 10 522 522" style="enable-background:new 0 0 2538.6 512;" xml:space="preserve">
<style type="text/css">
	.st0{fill:#B0BEC5;}
	.st1{fill:#78909C;}
	.st2{fill:#57565C;}
	.st3{fill:#2D2E30;}
	.st4{fill:#1D1D1F;}
	.st5{fill:#FFFFFF;}
</style>
<circle class="st0" cx="298.2" cy="268.2" r="235.8"/>
<path class="st1" d="M534,268.2c0-15.9-1.6-31.5-4.6-46.6l-48.7-48.7c-20.7,0-355.2,0-375.3,0c0,24,9.8,45.5,25.6,61.1l0,0
	l97.4,97.4c-1.7,0.3-3.4,0.4-5.2,0.4l0,0l0,0h-31.4v53l119.1,119.1C435.1,497.1,534,394.2,534,268.2z"/>
<path class="st2" d="M480.7,258.4v-85.6c-6.8,0-367.7,0-375.3,0c0,47.3,38.3,85.6,85.6,85.6h32.2c20.2,0,36.6,16.4,36.6,36.6
	c0,20.2-16.4,36.6-36.6,36.6h-31.4v53h288.9v-53h-31.4c-20.2,0-36.6-16.4-36.6-36.6s16.4-36.6,36.6-36.6L480.7,258.4L480.7,258.4z"
	/>
<g>
	<path class="st3" d="M449.2,258.4h31.4v-85.6c-3.4,0-93.2,0-184.3,0v211.8h184.3v-53h-31.4c-20.2,0-36.6-16.4-36.6-36.6
		S429,258.4,449.2,258.4z"/>
	<path class="st3" d="M449.2,258.4H223.2c20.2,0,36.6,16.4,36.6,36.6c0,20.2-16.4,36.6-36.6,36.6h226.1c-20.2,0-36.6-16.4-36.6-36.6
		S429,258.4,449.2,258.4z"/>
</g>
</svg>
